<?xml version="1.0" standalone="no"?>
<!DOCTYPE svg PUBLIC "-//W3C//DTD SVG 20010904//EN"
 "http://www.w3.org/TR/2001/REC-SVG-20010904/DTD/svg10.dtd">
<svg version="1.0" xmlns="http://www.w3.org/2000/svg"
 width="450.000000pt" height="450.000000pt" viewBox="0 0 450.000000 450.000000"
 preserveAspectRatio="xMidYMid meet">
<metadata>
Created by potrace 1.14, written by Peter Selinger 2001-2017
</metadata>
<g transform="translate(0.000000,450.000000) scale(0.100000,-0.100000)"
fill="#000000" stroke="none">
<path d="M260 2245 l0 -1975 1975 0 1975 0 0 1975 0 1975 -1975 0 -1975 0 0
-1975z m3620 0 l0 -1645 -1645 0 -1645 0 0 1645 0 1645 1645 0 1645 0 0 -1645z"/>
<path d="M2220 3653 c-14 -2 -42 -9 -62 -14 l-38 -10 0 -64 0 -64 53 26 c38
20 68 27 110 28 52 0 61 -3 83 -28 52 -61 30 -104 -126 -242 l-120 -106 0 -55
0 -54 210 0 210 0 0 55 0 55 -127 0 -127 0 45 37 c188 159 234 235 198 330
-33 88 -159 132 -309 106z"/>
<path d="M2795 3639 c-93 -21 -85 -14 -85 -75 0 -48 2 -55 18 -50 9 2 33 7 52
11 19 4 43 9 53 11 16 5 17 -8 17 -175 l0 -181 -65 0 -65 0 0 -55 0 -55 200 0
200 0 0 55 0 55 -65 0 -65 0 0 235 0 235 -77 -1 c-43 -1 -96 -5 -118 -10z"/>
<path d="M3336 3478 l-116 -173 0 -62 0 -63 130 0 130 0 0 -55 0 -55 70 0 70
0 0 55 0 55 40 0 40 0 0 55 0 55 -40 0 -40 0 0 180 0 180 -84 0 -83 0 -117
-172z m144 -73 l0 -115 -81 0 c-44 0 -79 4 -77 8 5 13 151 222 155 222 1 0 3
-52 3 -115z"/>
<path d="M1060 2195 l0 -1195 745 0 745 0 0 260 0 260 -485 0 -485 0 0 935 0
935 -260 0 -260 0 0 -1195z"/>
</g>
</svg>
